<?xml version="1.0" encoding="utf-8"?>
<!-- Generator: Adobe Illustrator 16.0.0, SVG Export Plug-In . SVG Version: 6.00 Build 0)  -->
<!DOCTYPE svg PUBLIC "-//W3C//DTD SVG 1.1//EN" "http://www.w3.org/Graphics/SVG/1.1/DTD/svg11.dtd">
<svg version="1.1" id="Layer_1" xmlns="http://www.w3.org/2000/svg" xmlns:xlink="http://www.w3.org/1999/xlink" x="0px" y="0px"
	 width="154px" height="50px" viewBox="0 0 154 50" enable-background="new 0 0 154 50" xml:space="preserve">
<g>
	<path fill-rule="evenodd" clip-rule="evenodd" fill="#ED2E39" d="M25.736,6.854c1.668,0,3.02,1.352,3.02,3.019
		s-1.352,3.018-3.02,3.018c-1.666,0-3.018-1.351-3.018-3.018S24.07,6.854,25.736,6.854 M25.736,1.987h5.1
		c2.211,0,4.021,1.81,4.021,4.021v9.831h9.83c2.213,0,4.021,1.809,4.021,4.021v10.277c0,2.212-1.809,4.021-4.021,4.021h-9.83v9.831
		c0,2.212-1.811,4.021-4.021,4.021h-5.1h-2.154c1.117-6.26,6.646-12.846,8.33-19.355c2.236-8.647-6.498-15.223-15.295-18.164V6.009
		c0-2.212,1.811-4.021,4.021-4.021H25.736z"/>
	<path fill-rule="evenodd" clip-rule="evenodd" fill="#F17D02" d="M22.352,47.998h-1.711c-2.211,0-4.021-1.81-4.021-4.021v-9.83
		h-9.83c-2.213,0-4.021-1.81-4.021-4.022V19.847c0-2.212,1.809-4.021,4.021-4.021h9.83v-3.924
		C32.723,18.912,23.863,37.252,22.352,47.998"/>
	<path fill="#58595B" d="M133.352,37.92h-7.959V10.893c0-0.251-0.068-0.457-0.229-0.639c-0.158-0.148-0.354-0.229-0.604-0.229
		h-8.279c-0.229,0-0.434,0.08-0.605,0.229c-0.182,0.182-0.273,0.388-0.273,0.639V37.92h-7.914V10.893c0-2.43,0.855-4.517,2.576-6.25
		c1.734-1.711,3.811-2.566,6.217-2.543h8.279c1.732-0.023,3.342,0.456,4.813,1.437c1.471-0.98,3.078-1.46,4.846-1.437h8.121
		c2.428-0.023,4.504,0.832,6.248,2.543c1.711,1.733,2.555,3.82,2.531,6.25V37.92h-7.914V10.893c0-0.251-0.09-0.457-0.273-0.639
		c-0.148-0.148-0.354-0.229-0.592-0.229h-8.121c-0.25,0-0.455,0.08-0.639,0.229c-0.16,0.182-0.229,0.388-0.229,0.639V37.92z
		 M77.586,10.025v6.877h15.932c0.252,0,0.457-0.092,0.639-0.263c0.16-0.16,0.229-0.354,0.229-0.604v-5.143
		c0-0.229-0.068-0.423-0.229-0.604c-0.182-0.183-0.387-0.263-0.639-0.263H77.586z M69.695,2.1h23.822
		c2.43,0,4.506,0.866,6.215,2.577c1.734,1.711,2.611,3.786,2.611,6.216c-0.021,3.113-0.021,4.835,0,5.143
		c0,1.962-0.592,3.718-1.777,5.28c-1.152,1.517-2.635,2.555-4.438,3.102l6.182,13.503h-9.158l-5.953-13.092h-9.613V37.92h-7.891V2.1
		z M56.512,2.031h7.891V37.92h-7.891V2.031z"/>
	<path fill="#58595B" d="M89.684,43.637c-0.908,0-1.363,0.609-1.363,1.831c0,1.221,0.432,1.831,1.297,1.831
		c0.445,0,0.789-0.155,1.033-0.467c0.244-0.311,0.365-0.776,0.365-1.397C91.016,44.235,90.572,43.637,89.684,43.637 M87.555,45.521
		c0-0.373,0.049-0.71,0.148-1.012c0.102-0.302,0.246-0.561,0.438-0.776c0.189-0.215,0.418-0.379,0.682-0.492s0.559-0.17,0.883-0.17
		s0.615,0.055,0.871,0.163c0.258,0.108,0.477,0.265,0.656,0.47c0.18,0.204,0.316,0.45,0.41,0.739
		c0.094,0.288,0.139,0.612,0.139,0.972s-0.053,0.688-0.158,0.988c-0.107,0.3-0.258,0.558-0.449,0.773
		c-0.193,0.215-0.426,0.384-0.697,0.506c-0.27,0.122-0.57,0.183-0.898,0.183c-0.652,0-1.152-0.202-1.502-0.605
		C87.729,46.854,87.555,46.275,87.555,45.521z M86.488,47.398v0.399h-2.031v-0.399l0.666-0.133V43.67h-0.865l-0.166,0.665H83.66
		v-1.198h3.627v1.198h-0.432l-0.166-0.665h-0.867v3.596L86.488,47.398z M82.627,43.67v2.23c0,0.652-0.137,1.143-0.412,1.471
		c-0.275,0.329-0.74,0.493-1.393,0.493s-1.113-0.152-1.385-0.456S79.031,46.635,79.031,46v-2.33l-0.566-0.133V43.17l1.898-0.033v0.4
		L79.73,43.67V46c0,0.488,0.084,0.826,0.254,1.016c0.168,0.188,0.453,0.283,0.857,0.283s0.688-0.104,0.846-0.311
		c0.16-0.206,0.24-0.568,0.24-1.088v-2.23l-0.633-0.133V43.17l1.898-0.033v0.4L82.627,43.67z M77.201,47.398v0.399H75.17v-0.399
		l0.666-0.133V43.67h-0.865l-0.168,0.665h-0.432v-1.198H78v1.198h-0.434L77.4,43.67h-0.865v3.596L77.201,47.398z M73.838,47.398
		v0.399h-1.83v-0.399l0.564-0.133V43.67l-0.564-0.133V43.17l1.83-0.033v0.4l-0.566,0.133v3.596L73.838,47.398z M70.676,47.398v0.399
		h-2.031v-0.399l0.666-0.133V43.67h-0.865l-0.168,0.665h-0.432v-1.198h3.629v1.198h-0.434l-0.166-0.665H70.01v3.596L70.676,47.398z
		 M64.797,46.433l0.133,0.699c0.08,0.045,0.188,0.083,0.326,0.116c0.137,0.033,0.273,0.051,0.406,0.051s0.262-0.018,0.385-0.051
		c0.125-0.033,0.234-0.081,0.328-0.143c0.092-0.063,0.166-0.137,0.223-0.224c0.055-0.087,0.082-0.185,0.082-0.296
		c0-0.129-0.035-0.236-0.105-0.323c-0.072-0.087-0.164-0.162-0.277-0.226c-0.113-0.064-0.24-0.121-0.383-0.171
		c-0.141-0.048-0.285-0.1-0.432-0.152c-0.156-0.066-0.307-0.134-0.449-0.203c-0.145-0.069-0.273-0.153-0.387-0.253
		c-0.113-0.101-0.203-0.221-0.27-0.363c-0.066-0.142-0.1-0.317-0.1-0.526c0-0.222,0.043-0.414,0.129-0.579
		c0.086-0.164,0.203-0.3,0.346-0.406c0.145-0.106,0.313-0.185,0.508-0.236c0.191-0.051,0.395-0.076,0.607-0.076
		c0.098,0,0.203,0.007,0.314,0.021c0.109,0.013,0.219,0.029,0.326,0.05c0.105,0.02,0.205,0.042,0.299,0.066s0.174,0.045,0.24,0.063
		l0.213,0.066l-0.033,1.132h-0.434l-0.227-0.713c-0.123-0.04-0.246-0.068-0.369-0.086c-0.121-0.019-0.248-0.027-0.375-0.027
		c-0.129,0-0.246,0.018-0.35,0.051c-0.105,0.033-0.193,0.078-0.268,0.136c-0.072,0.058-0.129,0.122-0.17,0.193
		c-0.039,0.07-0.059,0.145-0.059,0.22c0.004,0.187,0.066,0.333,0.186,0.439s0.27,0.197,0.445,0.273
		c0.178,0.075,0.371,0.146,0.576,0.213c0.207,0.066,0.398,0.149,0.572,0.249c0.176,0.101,0.322,0.23,0.439,0.39
		c0.119,0.16,0.178,0.368,0.178,0.626c0,0.231-0.045,0.436-0.133,0.613c-0.09,0.177-0.211,0.326-0.367,0.449
		c-0.154,0.122-0.34,0.215-0.553,0.279s-0.441,0.097-0.686,0.097c-0.098,0-0.203-0.007-0.316-0.021
		c-0.113-0.013-0.225-0.029-0.332-0.05c-0.109-0.02-0.211-0.042-0.303-0.066c-0.094-0.024-0.172-0.048-0.234-0.07l-0.186-0.066
		v-1.165H64.797z M62.432,47.798l-2.197-3.669v3.137l0.633,0.133v0.399H59.07v-0.399l0.564-0.133V43.67l-0.564-0.133V43.17
		l1.398-0.033l2.197,3.722V43.67L62.1,43.537V43.17l1.73-0.033v0.4l-0.566,0.133v4.128H62.432z M58.486,47.349v0.449h-2.059v-0.449
		l0.637-0.149v-4.046l-0.637-0.15v-0.411l2.059-0.038v0.449l-0.637,0.15v4.046L58.486,47.349z"/>
	<path fill="#58595B" d="M148.656,46.366l0.133,0.699c0.08,0.045,0.189,0.083,0.326,0.116s0.273,0.051,0.406,0.051
		s0.262-0.018,0.387-0.051c0.123-0.033,0.232-0.081,0.326-0.143c0.092-0.063,0.168-0.137,0.223-0.224
		c0.055-0.086,0.084-0.185,0.084-0.296c0-0.129-0.037-0.236-0.107-0.323s-0.162-0.162-0.277-0.226
		c-0.111-0.064-0.24-0.121-0.381-0.171c-0.143-0.048-0.287-0.1-0.434-0.152c-0.156-0.066-0.305-0.135-0.449-0.203
		c-0.145-0.069-0.273-0.153-0.387-0.253c-0.113-0.101-0.203-0.222-0.27-0.363s-0.1-0.317-0.1-0.526c0-0.222,0.043-0.415,0.129-0.579
		c0.088-0.164,0.203-0.3,0.348-0.406s0.313-0.186,0.506-0.236s0.396-0.076,0.609-0.076c0.098,0,0.201,0.006,0.313,0.02
		s0.221,0.03,0.326,0.05c0.107,0.021,0.207,0.043,0.299,0.066c0.094,0.024,0.174,0.046,0.24,0.063l0.213,0.067l-0.033,1.131h-0.432
		l-0.227-0.712c-0.125-0.04-0.248-0.068-0.371-0.086c-0.121-0.019-0.246-0.027-0.375-0.027s-0.246,0.017-0.35,0.05
		c-0.104,0.034-0.193,0.079-0.268,0.137c-0.072,0.058-0.129,0.122-0.17,0.193c-0.039,0.071-0.059,0.144-0.059,0.22
		c0.004,0.187,0.066,0.333,0.186,0.439c0.121,0.106,0.27,0.197,0.447,0.272s0.369,0.147,0.576,0.214
		c0.205,0.066,0.396,0.149,0.572,0.249s0.322,0.23,0.439,0.39c0.117,0.16,0.176,0.368,0.176,0.626c0,0.231-0.043,0.436-0.133,0.612
		c-0.088,0.178-0.211,0.327-0.365,0.449c-0.156,0.123-0.34,0.216-0.555,0.28c-0.213,0.064-0.441,0.097-0.686,0.097
		c-0.098,0-0.203-0.007-0.314-0.021c-0.115-0.013-0.225-0.029-0.334-0.05c-0.109-0.02-0.209-0.042-0.303-0.066
		s-0.172-0.048-0.232-0.07l-0.188-0.066v-1.165H148.656z M147.396,43.604v2.229c0,0.653-0.139,1.144-0.414,1.472
		c-0.275,0.329-0.738,0.493-1.391,0.493s-1.115-0.151-1.385-0.456c-0.271-0.304-0.406-0.773-0.406-1.408v-2.33l-0.566-0.134v-0.366
		l1.898-0.033v0.399l-0.633,0.134v2.33c0,0.488,0.084,0.826,0.252,1.016c0.17,0.188,0.455,0.283,0.859,0.283
		s0.686-0.104,0.846-0.311c0.16-0.206,0.24-0.569,0.24-1.089v-2.229l-0.633-0.134v-0.366l1.898-0.033v0.399L147.396,43.604z
		 M142.207,43.604h-1.432v1.432h1.531v0.532h-1.531v1.632h1.531l0.133-0.666h0.434v1.198h-3.363v-0.4l0.566-0.132v-3.596
		l-0.566-0.134v-0.366l1.266-0.033h2.031v1.132h-0.434L142.207,43.604z M138.283,47.331v0.4h-2.029v-0.4l0.666-0.132v-3.596h-0.867
		l-0.166,0.665h-0.434V43.07h3.629v1.198h-0.432l-0.166-0.665h-0.867v3.596L138.283,47.331z M133.508,43.93l-0.699,2.004h1.371
		L133.508,43.93z M131.164,47.731v-0.405l0.547-0.127l1.518-4.096l0.666-0.033l1.479,4.129l0.553,0.127v0.405h-1.932v-0.405
		l0.619-0.127l-0.254-0.733h-1.73l-0.26,0.733l0.627,0.127v0.405H131.164z M120.596,43.57c-0.91,0-1.365,0.609-1.365,1.831
		c0,1.22,0.434,1.831,1.299,1.831c0.443,0,0.787-0.155,1.031-0.467c0.244-0.311,0.367-0.776,0.367-1.398
		C121.928,44.169,121.484,43.57,120.596,43.57z M118.465,45.454c0-0.373,0.051-0.71,0.15-1.012s0.244-0.562,0.436-0.776
		s0.418-0.38,0.684-0.492c0.264-0.113,0.559-0.17,0.883-0.17c0.322,0,0.613,0.055,0.871,0.163s0.477,0.265,0.656,0.47
		c0.18,0.204,0.316,0.45,0.408,0.738c0.094,0.289,0.141,0.613,0.141,0.973s-0.053,0.689-0.16,0.988
		c-0.105,0.3-0.256,0.558-0.449,0.773c-0.193,0.215-0.426,0.384-0.695,0.506c-0.271,0.122-0.57,0.183-0.898,0.183
		c-0.652,0-1.154-0.202-1.502-0.606C118.639,46.788,118.465,46.209,118.465,45.454z M117.504,47.331v0.4h-2.029v-0.4l0.666-0.132
		v-3.596h-0.867l-0.166,0.665h-0.434V43.07h3.629v1.198h-0.432l-0.166-0.665h-0.867v3.596L117.504,47.331z M111.982,43.604v1.598
		h0.5c0.324,0,0.578-0.073,0.76-0.22s0.273-0.34,0.273-0.58c0-0.243-0.078-0.438-0.234-0.582c-0.154-0.145-0.355-0.216-0.6-0.216
		H111.982z M110.719,47.731v-0.4l0.564-0.132v-3.596l-0.564-0.134v-0.366l1.264-0.033h0.732c0.471,0,0.838,0.106,1.104,0.32
		c0.264,0.213,0.395,0.506,0.395,0.878c0,0.653-0.287,1.085-0.865,1.299c0.107,0.093,0.24,0.293,0.4,0.599l0.525,1.06l0.473,0.105
		v0.4h-0.998l-0.566-1.232c-0.154-0.333-0.289-0.549-0.402-0.648c-0.113-0.101-0.279-0.15-0.496-0.15h-0.301v1.499l0.566,0.132v0.4
		H110.719z M109.691,43.604h-1.432v1.432h1.531v0.532h-1.531v1.632h1.531l0.133-0.666h0.434v1.198h-3.363v-0.4l0.566-0.132v-3.596
		l-0.566-0.134v-0.366l1.266-0.033h2.031v1.132h-0.434L109.691,43.604z M104.336,43.604v1.465h0.5c0.311,0,0.555-0.063,0.732-0.19
		s0.266-0.31,0.266-0.549c0-0.244-0.07-0.427-0.213-0.546c-0.143-0.12-0.326-0.18-0.553-0.18H104.336z M104.336,45.567v1.632h0.699
		c0.645,0,0.965-0.256,0.965-0.767c0-0.319-0.096-0.544-0.289-0.672c-0.193-0.129-0.484-0.193-0.875-0.193H104.336z M103.104,47.731
		v-0.4l0.566-0.132v-3.596l-0.566-0.134v-0.366l1.232-0.033h0.766c0.436,0,0.783,0.098,1.043,0.293s0.389,0.486,0.389,0.872
		c0,0.573-0.289,0.933-0.865,1.079c0.346,0.08,0.605,0.213,0.775,0.399c0.172,0.187,0.256,0.415,0.256,0.686
		c0,0.889-0.564,1.332-1.697,1.332H103.104z M100.779,43.57c-0.91,0-1.365,0.609-1.365,1.831c0,1.22,0.432,1.831,1.299,1.831
		c0.443,0,0.787-0.155,1.031-0.467c0.244-0.311,0.365-0.776,0.365-1.398C102.109,44.169,101.666,43.57,100.779,43.57z
		 M98.648,45.454c0-0.373,0.049-0.71,0.15-1.012c0.098-0.302,0.244-0.562,0.436-0.776s0.418-0.38,0.682-0.492
		c0.264-0.113,0.559-0.17,0.883-0.17s0.615,0.055,0.873,0.163c0.256,0.108,0.475,0.265,0.654,0.47c0.18,0.204,0.316,0.45,0.41,0.738
		c0.094,0.289,0.141,0.613,0.141,0.973s-0.055,0.689-0.16,0.988c-0.107,0.3-0.256,0.558-0.449,0.773
		c-0.193,0.215-0.426,0.384-0.697,0.506c-0.27,0.122-0.57,0.183-0.898,0.183c-0.652,0-1.152-0.202-1.502-0.606
		C98.822,46.788,98.648,46.209,98.648,45.454z M128.693,47.731v-0.449l0.713-0.15v-3.745l-0.225,0.562l-1.162,2.36l-0.6,0.037
		l-1.16-2.435l-0.188-0.524v3.745l0.711,0.15v0.449h-2.021v-0.449l0.637-0.15v-4.045l-0.637-0.15v-0.412l1.686-0.037l1.355,2.996
		l1.416-2.959l1.572-0.037v0.449l-0.637,0.15v4.045l0.637,0.15v0.449H128.693z M95.527,43.087v1.798h0.563
		c0.365,0,0.648-0.083,0.854-0.247c0.205-0.165,0.309-0.382,0.309-0.652c0-0.274-0.088-0.492-0.264-0.655
		c-0.174-0.162-0.398-0.243-0.674-0.243H95.527z M94.105,47.731v-0.449l0.637-0.15v-4.045l-0.637-0.15v-0.412l1.422-0.037h0.824
		c0.529,0,0.943,0.12,1.24,0.359c0.297,0.24,0.445,0.569,0.445,0.989c0,0.734-0.324,1.221-0.973,1.461
		c0.119,0.104,0.27,0.329,0.449,0.674l0.592,1.191l0.531,0.12v0.449h-1.123l-0.637-1.386c-0.176-0.375-0.326-0.618-0.453-0.73
		c-0.129-0.112-0.314-0.169-0.559-0.169h-0.338v1.686l0.637,0.15v0.449H94.105z"/>
</g>
</svg>
